<svg width="138" height="48" viewBox="0 0 138 48" fill="none" xmlns="http://www.w3.org/2000/svg">
<g clip-path="url(#clip0_176_330)">
<path d="M71.118 0H65.3748C65.0712 0 64.7808 0.2436 64.728 0.5436L59.1408 32.1216C59.088 32.4216 59.2908 32.6652 59.5956 32.6652H65.3388C65.6424 32.6652 65.9328 32.4216 65.9856 32.1216L71.5728 0.5436C71.6256 0.2436 71.4228 0 71.118 0Z" fill="white"/>
<path d="M137.514 0H131.77C131.466 0 131.176 0.2436 131.123 0.5436L125.536 32.1216C125.483 32.4216 125.686 32.6652 125.99 32.6652H131.735C132.038 32.6652 132.329 32.4216 132.382 32.1216L137.969 0.5436C138.022 0.2436 137.819 0 137.514 0Z" fill="white"/>
<path d="M115.068 15.9455C117.853 15.9455 119.723 18.1799 119.237 20.9279C118.751 23.6759 116.09 25.9103 113.305 25.9103C110.52 25.9103 108.65 23.6759 109.136 20.9279C109.622 18.1799 112.283 15.9455 115.068 15.9455ZM116.263 9.19189C109.694 9.19189 103.439 14.4467 102.292 20.9279C101.144 27.4103 105.541 32.6639 112.11 32.6639C118.679 32.6639 124.934 27.4091 126.082 20.9279C127.229 14.4467 122.832 9.19189 116.263 9.19189Z" fill="white"/>
<path d="M81.7704 15.9455C84.5556 15.9455 86.4252 18.1799 85.9392 20.9279C85.4532 23.6759 82.7928 25.9103 80.0076 25.9103C77.2224 25.9103 75.3528 23.6759 75.8388 20.9279C76.3248 18.1799 78.9852 15.9455 81.7704 15.9455ZM82.9644 9.19189C76.3956 9.19189 70.14 14.4467 68.9928 20.9279C67.8456 27.4103 72.2424 32.6639 78.8112 32.6639C85.38 32.6639 91.6356 27.4091 92.7828 20.9279C93.93 14.4467 89.5332 9.19189 82.9644 9.19189Z" fill="white"/>
<path d="M53.1228 22.9238H58.7424C58.8768 22.9238 59.01 22.829 59.0544 22.6982C59.2536 22.1198 59.4228 21.533 59.5296 20.9282C59.7012 19.9562 59.736 19.0166 59.67 18.1154C59.2896 12.9098 55.1616 9.06499 49.4304 9.19459C43.1712 9.33619 37.1604 14.3162 35.8332 20.4638C34.3872 27.1574 38.8344 32.6642 45.5616 32.6642C50.6364 32.6642 55.5132 29.525 58.002 25.1126C58.1016 24.9362 57.9984 24.7454 57.8076 24.7454H51.9156C51.8352 24.7454 51.7524 24.7802 51.6888 24.8438C50.3148 26.183 48.4608 27.035 46.5588 27.035C46.2924 27.035 46.0344 27.0134 45.7812 26.981C45.7116 26.9726 45.6444 26.9594 45.5748 26.9486C45.3744 26.9162 45.1776 26.873 44.9892 26.8178C44.9424 26.8046 44.892 26.7938 44.844 26.7794C44.6124 26.7062 44.388 26.6186 44.172 26.519C44.136 26.5022 44.1036 26.4842 44.0712 26.4674C43.8972 26.381 43.7268 26.285 43.566 26.1794C43.5192 26.147 43.47 26.117 43.4232 26.0846C43.0308 25.8098 42.69 25.4822 42.4008 25.1102C42.3828 25.0862 42.3648 25.0646 42.3468 25.0394C42.276 24.9446 42.204 24.8498 42.1392 24.749C42.078 24.6566 42.024 24.5594 41.9724 24.461C41.9688 24.4526 41.964 24.4478 41.9592 24.4394C41.8392 24.2162 41.7372 23.9858 41.6532 23.7446C41.5836 23.5466 41.5284 23.3426 41.4828 23.1362C41.4756 23.0978 41.4684 23.0606 41.4612 23.0222C41.4564 22.9898 41.448 22.9274 41.448 22.9274H53.1276L53.1168 22.925L53.1228 22.9238ZM42.6468 18.1118C42.8184 17.8706 43.0032 17.6366 43.1988 17.417C43.206 17.4086 43.212 17.4038 43.2192 17.3954C43.4016 17.1914 43.5948 17.0018 43.7976 16.817C43.824 16.793 43.8504 16.7714 43.8756 16.7462C44.2968 16.3742 44.7564 16.0454 45.2448 15.7718C45.294 15.7442 45.342 15.7202 45.3912 15.6926C45.6012 15.581 45.8112 15.4778 46.0284 15.3854C46.0704 15.3686 46.1064 15.3506 46.1472 15.3338C46.3956 15.233 46.6536 15.1466 46.9116 15.0734C46.9632 15.0602 47.0172 15.0494 47.0724 15.035C47.28 14.981 47.4912 14.9402 47.7036 14.9042C47.7768 14.8934 47.8476 14.8826 47.9208 14.8718C48.1848 14.8394 48.45 14.8178 48.7176 14.8178C48.9852 14.8178 49.242 14.8394 49.4952 14.8718C49.5648 14.8802 49.632 14.8934 49.7016 14.9042C49.902 14.9366 50.0988 14.9798 50.2872 15.035C50.334 15.0482 50.3844 15.059 50.4348 15.0734C50.67 15.1466 50.8932 15.2342 51.1068 15.3338C51.1428 15.3506 51.1752 15.3686 51.2076 15.3854C51.3924 15.4778 51.57 15.5786 51.7368 15.6926C51.7764 15.7202 51.816 15.7442 51.8544 15.7718C52.2468 16.0454 52.5876 16.3742 52.8768 16.7462C52.8948 16.7702 52.9128 16.7918 52.9308 16.817C53.0688 17.0018 53.1948 17.1914 53.304 17.3954C53.3076 17.4038 53.3124 17.4086 53.3172 17.417C53.4372 17.6402 53.5392 17.8706 53.6232 18.1118H42.6444H42.6468Z" fill="white"/>
<path d="M96.606 9.77295C96.3036 9.77295 96.012 10.0177 95.9592 10.3165L91.3896 36.1429C90.912 38.8417 88.3836 41.1421 85.632 41.2453C82.8804 41.3485 81.0096 39.3421 81.204 36.7645C81.2268 36.4825 81.0312 36.2653 80.7444 36.2653H74.9868C74.67 36.2653 74.3736 36.5294 74.334 36.8413C73.5312 43.1222 77.958 48.1081 84.4452 47.9989C90.9876 47.8897 97.1088 42.5053 98.2464 36.0697L102.803 10.3165C102.856 10.0177 102.652 9.77295 102.348 9.77295H96.6048H96.606Z" fill="white"/>
<path d="M32.7048 10.8505L26.4768 22.9525L24.5304 10.8505C24.5124 10.7437 24.4248 10.6729 24.3108 10.6729H0.314422C0.134422 10.6729 -0.0227778 10.8481 0.00242219 11.0173L3.45602 32.4865C3.47402 32.5933 3.56162 32.6641 3.67562 32.6641H27.8628C27.9768 32.6641 28.0896 32.5909 28.1448 32.4865L39.1956 11.0173C39.2832 10.8481 39.1848 10.6729 39.0048 10.6729H32.9868C32.8728 10.6729 32.76 10.7461 32.7048 10.8505Z" fill="#D9D9D9"/>
<path d="M28.1472 32.4865L39.198 11.0173C39.2856 10.8481 39.1872 10.6729 39.0072 10.6729H32.9892C32.8752 10.6729 32.7624 10.7461 32.7072 10.8505H32.7048L26.4924 22.9201L28.0692 32.5824C28.1004 32.5548 28.1268 32.5225 28.1472 32.4865Z" fill="white"/>
<path d="M25.0344 13.987L25.0332 13.9858L25.0344 13.987Z" fill="#30DB5B"/>
<path fill-rule="evenodd" clip-rule="evenodd" d="M11.8248 16.0619C12.3084 15.7199 12.3744 14.9267 11.9736 14.2895C11.5716 13.6535 10.8552 13.4147 10.3716 13.7567C9.88798 14.0987 9.82198 14.8919 10.2228 15.5291C10.6248 16.1651 11.3412 16.4039 11.8248 16.0619ZM10.8852 29.6591C10.1292 29.6591 9.36598 29.2199 8.73598 28.4219C8.16478 27.6983 7.75198 26.7443 7.57438 25.7339C7.33078 24.3503 7.56718 23.0687 8.20918 22.3043C8.59678 21.8423 9.12118 21.5891 9.68758 21.5891C10.4436 21.5891 11.2068 22.0283 11.8368 22.8263C12.408 23.5499 12.8208 24.5039 12.9984 25.5143C13.242 26.8979 13.0056 28.1795 12.3636 28.9439C11.976 29.4059 11.4516 29.6591 10.8852 29.6591ZM9.68758 22.8599C9.49438 22.8599 9.32998 22.9451 9.18238 23.1215C8.79238 23.5871 8.65198 24.5255 8.82598 25.5131C8.96758 26.3195 9.29038 27.0719 9.73318 27.6335C10.1124 28.1123 10.5324 28.3883 10.8864 28.3883C11.0796 28.3883 11.244 28.3031 11.3916 28.1267C11.7816 27.6611 11.922 26.7227 11.748 25.7351C11.6064 24.9287 11.2836 24.1763 10.8408 23.6147C10.4616 23.1359 10.0416 22.8599 9.68758 22.8599ZM19.6728 29.6591C18.9168 29.6591 18.1536 29.2199 17.5236 28.4219C16.9524 27.6983 16.5396 26.7443 16.362 25.7339C16.1184 24.3503 16.3548 23.0687 16.9968 22.3043C17.3844 21.8423 17.9088 21.5891 18.4752 21.5891C19.2312 21.5891 19.9944 22.0283 20.6244 22.8263C21.1956 23.5499 21.6084 24.5039 21.786 25.5143C22.0296 26.8979 21.7932 28.1795 21.1512 28.9439C20.7636 29.4059 20.2392 29.6591 19.6728 29.6591ZM18.474 22.8599C18.2808 22.8599 18.1164 22.9451 17.9688 23.1215C17.5788 23.5871 17.4384 24.5255 17.6124 25.5131C17.754 26.3195 18.0768 27.0719 18.5196 27.6335C18.8988 28.1123 19.3188 28.3883 19.6728 28.3883C19.866 28.3883 20.0304 28.3031 20.178 28.1267C20.568 27.6611 20.7084 26.7227 20.5344 25.7351C20.3928 24.9287 20.07 24.1763 19.6272 23.6147C19.248 23.1359 18.828 22.8599 18.474 22.8599ZM15.3588 21.4811L14.304 24.7547C14.1312 25.3031 14.298 25.9043 14.7336 26.2787C14.9196 26.4383 15.0768 26.5331 15.108 26.4287L16.8216 20.4611C16.8312 20.4275 16.7796 20.3987 16.7652 20.4311L16.7457 20.4759C16.647 20.7035 16.5669 20.8884 16.1544 21.0563C16.0642 21.0929 15.9697 21.1212 15.8783 21.1486C15.6376 21.2207 15.4185 21.2863 15.3576 21.4811H15.3588ZM13.1688 16.6043C13.1688 16.6043 15.7932 18.4823 16.4856 19.6511H16.4844C16.8984 20.3483 16.0704 20.9807 15.1632 20.9219L13.6416 20.8991C13.5372 20.9255 13.4808 21.0383 13.5204 21.1379L14.3148 22.9991C14.4084 23.3543 14.1552 23.3675 13.8504 23.2763C13.3764 23.1335 12.9864 22.7915 12.774 22.3427L12.06 20.8295C11.9604 20.6039 11.958 20.3471 12.054 20.1191C12.0564 20.1143 12.0585 20.1095 12.0606 20.1047C12.0627 20.0999 12.0648 20.0951 12.0672 20.0903C12.2028 19.7963 12.5076 19.6163 12.8316 19.6235L14.8008 19.8239C14.8812 19.8035 14.9076 19.7027 14.8476 19.6451L12.8304 17.8223C12.7248 17.7203 12.5532 17.7323 12.4644 17.8499L10.608 19.9151C10.5804 19.9487 10.5456 19.9751 10.506 19.9967C10.1808 20.1695 9.92758 19.6115 10.11 19.2911L11.712 16.7267C11.9064 16.4747 12.1596 16.3391 12.438 16.3235C12.7128 16.3079 12.9768 16.4099 13.1688 16.6043Z" fill="#333333"/>
</g>
<defs>
<clipPath id="clip0_176_330">
<rect width="137.977" height="48" fill="white"/>
</clipPath>
</defs>
</svg>
